<?xml version="1.0" encoding="iso-8859-1"?>
<!-- Generator: Adobe Illustrator 19.0.0, SVG Export Plug-In . SVG Version: 6.00 Build 0)  -->
<svg version="1.1" id="Layer_1" xmlns="http://www.w3.org/2000/svg" xmlns:xlink="http://www.w3.org/1999/xlink" x="0px" y="0px"
	 viewBox="0 0 512 512" style="enable-background:new 0 0 512 512;" xml:space="preserve">
<polygon style="fill:#CAD4DB;" points="344.276,256 167.724,256 132.414,256 132.414,353.103 167.724,353.103 344.276,353.103 
	379.586,353.103 379.586,256 "/>
<path style="fill:#A7B1B7;" d="M256,44.138c-5.297,0-8.828-3.531-8.828-8.828V8.828C247.172,3.531,250.703,0,256,0
	s8.828,3.531,8.828,8.828V35.31C264.828,40.607,261.297,44.138,256,44.138"/>
<polygon style="fill:#E6EEF4;" points="238.345,79.448 273.655,79.448 273.655,35.31 238.345,35.31 "/>
<path style="fill:#CAD4DB;" d="M167.724,158.897V256h176.552v-97.103c0-48.552-39.724-88.276-88.276-88.276
	S167.724,110.345,167.724,158.897"/>
<g>
	<polygon style="fill:#E6EEF4;" points="194.207,353.103 211.862,353.103 211.862,256 194.207,256 	"/>
	<polygon style="fill:#E6EEF4;" points="229.517,353.103 247.172,353.103 247.172,256 229.517,256 	"/>
	<polygon style="fill:#E6EEF4;" points="264.828,353.103 282.483,353.103 282.483,256 264.828,256 	"/>
	<polygon style="fill:#E6EEF4;" points="300.138,353.103 317.793,353.103 317.793,256 300.138,256 	"/>
	<polygon style="fill:#E6EEF4;" points="8.828,512 503.172,512 503.172,353.103 8.828,353.103 	"/>
</g>
<g>
	<polygon style="fill:#A7B1B7;" points="167.724,512 344.276,512 344.276,353.103 167.724,353.103 	"/>
	<polygon style="fill:#A7B1B7;" points="105.931,512 123.586,512 123.586,353.103 105.931,353.103 	"/>
	<path style="fill:#A7B1B7;" d="M397.241,264.828H114.759c-5.297,0-8.828-3.531-8.828-8.828s3.531-8.828,8.828-8.828h282.483
		c5.297,0,8.828,3.531,8.828,8.828C406.069,261.297,402.538,264.828,397.241,264.828"/>
	<path style="fill:#A7B1B7;" d="M44.138,494.345c-5.297,0-8.828-3.531-8.828-8.828v-26.483c0-5.297,3.531-8.828,8.828-8.828
		s8.828,3.531,8.828,8.828v26.483C52.966,490.814,49.434,494.345,44.138,494.345"/>
	<path style="fill:#A7B1B7;" d="M79.448,494.345c-5.297,0-8.828-3.531-8.828-8.828v-26.483c0-5.297,3.531-8.828,8.828-8.828
		c5.297,0,8.828,3.531,8.828,8.828v26.483C88.276,490.814,84.745,494.345,79.448,494.345"/>
</g>
<g>
	<path style="fill:#E6EEF4;" d="M203.034,494.345c-5.297,0-8.828-3.531-8.828-8.828v-97.103c0-5.297,3.531-8.828,8.828-8.828
		s8.828,3.531,8.828,8.828v97.103C211.862,490.814,208.331,494.345,203.034,494.345"/>
	<path style="fill:#E6EEF4;" d="M238.345,494.345c-5.297,0-8.828-3.531-8.828-8.828v-97.103c0-5.297,3.531-8.828,8.828-8.828
		s8.828,3.531,8.828,8.828v97.103C247.172,490.814,243.641,494.345,238.345,494.345"/>
	<path style="fill:#E6EEF4;" d="M273.655,494.345c-5.297,0-8.828-3.531-8.828-8.828v-97.103c0-5.297,3.531-8.828,8.828-8.828
		s8.828,3.531,8.828,8.828v97.103C282.483,490.814,278.952,494.345,273.655,494.345"/>
	<path style="fill:#E6EEF4;" d="M308.966,494.345c-5.297,0-8.828-3.531-8.828-8.828v-97.103c0-5.297,3.531-8.828,8.828-8.828
		s8.828,3.531,8.828,8.828v97.103C317.793,490.814,314.262,494.345,308.966,494.345"/>
</g>
<g>
	<polygon style="fill:#A7B1B7;" points="388.414,512 406.069,512 406.069,353.103 388.414,353.103 	"/>
	<path style="fill:#A7B1B7;" d="M432.552,494.345c-5.297,0-8.828-3.531-8.828-8.828v-26.483c0-5.297,3.531-8.828,8.828-8.828
		s8.828,3.531,8.828,8.828v26.483C441.379,490.814,437.848,494.345,432.552,494.345"/>
	<path style="fill:#A7B1B7;" d="M467.862,494.345c-5.297,0-8.828-3.531-8.828-8.828v-26.483c0-5.297,3.531-8.828,8.828-8.828
		s8.828,3.531,8.828,8.828v26.483C476.69,490.814,473.159,494.345,467.862,494.345"/>
	<path style="fill:#A7B1B7;" d="M141.241,494.345c-5.297,0-8.828-3.531-8.828-8.828v-26.483c0-5.297,3.531-8.828,8.828-8.828
		s8.828,3.531,8.828,8.828v26.483C150.069,490.814,146.538,494.345,141.241,494.345"/>
	<path style="fill:#A7B1B7;" d="M370.759,494.345c-5.297,0-8.828-3.531-8.828-8.828v-26.483c0-5.297,3.531-8.828,8.828-8.828
		s8.828,3.531,8.828,8.828v26.483C379.586,490.814,376.055,494.345,370.759,494.345"/>
	<path style="fill:#A7B1B7;" d="M256,231.283c-5.297,0-8.828-3.531-8.828-8.828v-26.483c0-5.297,3.531-8.828,8.828-8.828
		s8.828,3.531,8.828,8.828v26.483C264.828,226.869,261.297,231.283,256,231.283"/>
	<path style="fill:#A7B1B7;" d="M291.31,231.283c-5.297,0-8.828-3.531-8.828-8.828v-26.483c0-5.297,3.531-8.828,8.828-8.828
		s8.828,3.531,8.828,8.828v26.483C300.138,226.869,296.607,231.283,291.31,231.283"/>
	<path style="fill:#A7B1B7;" d="M220.69,231.283c-5.297,0-8.828-3.531-8.828-8.828v-26.483c0-5.297,3.531-8.828,8.828-8.828
		s8.828,3.531,8.828,8.828v26.483C229.517,226.869,225.986,231.283,220.69,231.283"/>
	<path style="fill:#A7B1B7;" d="M361.931,167.724H150.069c-5.297,0-8.828-3.531-8.828-8.828s3.531-8.828,8.828-8.828h211.862
		c5.297,0,8.828,3.531,8.828,8.828S367.228,167.724,361.931,167.724"/>
</g>
<g>
</g>
<g>
</g>
<g>
</g>
<g>
</g>
<g>
</g>
<g>
</g>
<g>
</g>
<g>
</g>
<g>
</g>
<g>
</g>
<g>
</g>
<g>
</g>
<g>
</g>
<g>
</g>
<g>
</g>
</svg>
